<svg xmlns="http://www.w3.org/2000/svg" viewBox="0 0 25.34 25.15"><defs><style>.cls-1{fill:#009590;}</style></defs><g id="Layer_2" data-name="Layer 2"><g id="Layer_1-2" data-name="Layer 1"><path class="cls-1" d="M12.67,7.15a5.43,5.43,0,1,0,5.47,5.42A5.45,5.45,0,0,0,12.67,7.15Z"/><path class="cls-1" d="M19.39,0H6A5.93,5.93,0,0,0,0,5.9V19.24a5.94,5.94,0,0,0,6,5.91H19.39a5.93,5.93,0,0,0,5.95-5.91V5.9A5.92,5.92,0,0,0,19.39,0ZM12.67,20.57a8,8,0,1,1,8.06-8A8,8,0,0,1,12.67,20.57ZM21,5.62a1.35,1.35,0,1,1,1.36-1.35A1.35,1.35,0,0,1,21,5.62Z"/></g></g></svg>