<svg xmlns="http://www.w3.org/2000/svg" viewBox="0 0 20.67 20.51"><defs><style>.cls-1{fill:#fff;}</style></defs><g id="Layer_2" data-name="Layer 2"><g id="Layer_1-2" data-name="Layer 1"><path class="cls-1" d="M10.33,5.83a4.43,4.43,0,1,0,4.46,4.42A4.43,4.43,0,0,0,10.33,5.83Z"/><path class="cls-1" d="M15.82,0h-11A4.84,4.84,0,0,0,0,4.82V15.69a4.84,4.84,0,0,0,4.86,4.82h11a4.84,4.84,0,0,0,4.85-4.82V4.82A4.84,4.84,0,0,0,15.82,0ZM10.33,16.78a6.53,6.53,0,1,1,6.58-6.53A6.55,6.55,0,0,1,10.33,16.78ZM17.1,4.58a1.1,1.1,0,1,1,1.1-1.1A1.11,1.11,0,0,1,17.1,4.58Z"/></g></g></svg>