<svg xmlns="http://www.w3.org/2000/svg" viewBox="0 0 24.79 32.7"><defs><style>.cls-1{fill:#58595b;}</style></defs><g id="Layer_2" data-name="Layer 2"><g id="Layer_1-2" data-name="Layer 1"><path class="cls-1" d="M12.4,32.7a1.52,1.52,0,0,1-1.25-.65L3.06,20.65A17.89,17.89,0,0,1,1,17.22a12.38,12.38,0,0,1-.73-2.36A12.15,12.15,0,0,1,0,12.4,12.4,12.4,0,0,1,17.13.94,12.39,12.39,0,0,1,24.79,12.4a12.46,12.46,0,0,1-1,4.82,17.47,17.47,0,0,1-2.07,3.42l-.36.5L13.64,32.05a1.52,1.52,0,0,1-1.24.65Zm0-31.62A11.32,11.32,0,0,0,1.08,12.4a11.43,11.43,0,0,0,.23,2.24A11.16,11.16,0,0,0,2,16.79a17.39,17.39,0,0,0,2,3.23l.36.5L12,31.42a.44.44,0,0,0,.73,0l7.74-10.9.36-.5a16.87,16.87,0,0,0,2-3.23,11.16,11.16,0,0,0,.66-2.15,10.81,10.81,0,0,0,.23-2.25A11.32,11.32,0,0,0,12.4,1.08Zm0,18.77a7.46,7.46,0,1,1,7.45-7.45,7.46,7.46,0,0,1-7.45,7.45ZM12.4,6a6.38,6.38,0,1,0,6.37,6.38A6.38,6.38,0,0,0,12.4,6Z"/></g></g></svg>