<svg xmlns="http://www.w3.org/2000/svg" viewBox="0 0 204.67 113.25"><defs><style>.cls-1{fill:#fff;}</style></defs><g id="Layer_2" data-name="Layer 2"><g id="Layer_1-2" data-name="Layer 1"><path class="cls-1" d="M84.93,44.61a96.66,96.66,0,0,1-6-8.82,17.91,17.91,0,0,1-2.41-7.29c-.12-1.77,0-3.51,2.06-4.75.76,5.5,4.72,8.4,8.47,11.53,6.7,5.59,9.72,13.07,10.72,21.5a39.24,39.24,0,0,1-1.55,17.74,8.13,8.13,0,0,1-1.33,2.71c-.61-1.3-1.15-2.55-1.75-3.76A35.1,35.1,0,0,0,80.9,59.94a56.9,56.9,0,0,1-20-22.6A44.63,44.63,0,0,1,57.35,7.49,17.73,17.73,0,0,1,58,5.27c.49-1.37.87-1.44,1.81-.27a9.29,9.29,0,0,1,1.87,5.48,48.23,48.23,0,0,0,4.57,18.35c2.62,5.58,6.48,9.92,12.2,12.45,2.18,1,4.08,2.42,6.16,3.57l.39.23.17.17v-.19l-.2,0C85.27,44.9,85,44.77,84.93,44.61Z"/><path class="cls-1" d="M120,45c2.55-1.66,5.21-3.14,7.92-4.55,6.05-3.13,9.39-8.48,11.83-14.59a56.16,56.16,0,0,0,3.41-16.45,7.65,7.65,0,0,1,1.95-4.63c.64-.71,1.1-.78,1.49.28a31.46,31.46,0,0,1,1.78,9.24c.79,14.24-4.31,26.26-13.9,36.58a63.05,63.05,0,0,1-11.6,9.78,34,34,0,0,0-12.61,15.72c-.11.28-.13.62-.59.75a24.11,24.11,0,0,1-2.7-9.25,43.49,43.49,0,0,1,2.55-21.3A31.09,31.09,0,0,1,120.34,33a14.82,14.82,0,0,0,5.56-8c.1-.35,0-1,.53-1s.81.41,1,.8a6.43,6.43,0,0,1,.59,4.8,24.25,24.25,0,0,1-4.36,9.49c-1.29,1.87-2.64,3.7-4,5.54l-.13.36Z"/><path class="cls-1" d="M102.59,50.37c-2-4.51-3.87-8.85-5.76-13.19a45.23,45.23,0,0,0-5.32-9.06c-6.1-8.19-8-17.51-7.66-27.49A4.1,4.1,0,0,1,84,0c.81,2,1.5,3.81,2.26,5.59A30.16,30.16,0,0,0,92.21,15c6.13,6.24,15.84,5.82,21.67-1a37.26,37.26,0,0,0,6.64-12.34c.19-.54.15-1.23.71-1.58A51,51,0,0,1,120.46,13a29.12,29.12,0,0,1-4.61,11.41c-5.56,7.63-9.12,16.25-12.78,24.84Z"/><path class="cls-1" d="M96.78,9a6,6,0,0,1,11.92-.06A6,6,0,1,1,96.78,9Z"/><path class="cls-1" d="M70.73,33a6.88,6.88,0,0,1-2.31-3,35.47,35.47,0,0,1-4.21-14.74,7.35,7.35,0,0,1,1.11-4.73c.57-.88,1-.83,1.59,0a11.21,11.21,0,0,1,1.63,5.57c.32,3.69.53,7.4.95,11.09A58.8,58.8,0,0,0,70.71,33Z"/><path class="cls-1" d="M70.71,33l.21,0-.07.17L70.73,33Z"/><path class="cls-1" d="M85,45.11l.2,0v.19L85,45.08Z"/><path class="cls-1" d="M105.93,94.07c-1.14,2.73-2.27,5.47-3.41,8.2-1.37,3.31-2.75,6.61-4.11,9.93-.22.54-.43.85-1.12.85s-.9-.36-1.1-.89c-2.09-5.65-4.21-11.28-6.32-16.92a2.83,2.83,0,0,0-.67-1.12v16.29c0,.81-.14,1.68,1.11,1.69.33,0,.25.31.26.53s-.15.39-.42.39H86.94c-.29,0-.53,0-.53-.42s0-.52.42-.53c.79,0,.87-.57.86-1.2q0-9.63,0-19.24c0-.73-.13-1.3-1-1.43-.54-.08-.49-.48-.47-.87s.41-.37.68-.37c1.8,0,3.6,0,5.4,0,.68,0,.81.37,1,.85q2.63,7,5.28,14l.58,1.48c.47-.15.46-.54.58-.83,2-4.91,4-9.81,5.92-14.74a1.2,1.2,0,0,1,1.34-.9c1.6,0,3.21,0,4.82,0,.31,0,.75-.14.76.42,0,.39.17.85-.48,1s-.89.72-.89,1.38V110a1.86,1.86,0,0,0,1,1.9.63.63,0,0,1,.36.75c0,.5-.45.32-.71.32-2.21,0-4.43,0-6.65,0-.27,0-.64.13-.67-.38,0-.34.06-.59.43-.68,1-.24,1.19-1,1.19-1.92,0-5.31,0-10.61,0-15.91Z"/><path class="cls-1" d="M138.12,89a38.09,38.09,0,0,1,7.54.43c4.67,1,7.71,4.14,8.21,8.9.28,2.73.39,5.51-.79,8.11-1.81,4-5.18,5.78-9.28,6.39-3.53.54-7.1.14-10.65.24-.25,0-.55.07-.59-.34s0-.61.41-.71c.9-.25,1-.94,1-1.72q0-9.27,0-18.55c0-.76-.1-1.37-1-1.52-.51-.08-.38-.48-.39-.81,0-.48.34-.41.63-.41Zm.53,12.15v9.84a.49.49,0,0,0,0,.12c.06.4-.21,1,.55,1,4.76.38,8.11-2.07,9.17-6a20.68,20.68,0,0,0,.55-7.6c-.61-5.5-3.79-8.35-9.25-8.3-.78,0-1.05.21-1,1C138.68,94.46,138.66,97.78,138.65,101.1Z"/><path class="cls-1" d="M28.28,113c-2.68,0-5.36,0-8,0-.28,0-.72.23-.82-.32s.13-.67.61-.73.77-.51.77-1.08q0-9.86,0-19.71c0-.58-.14-1-.78-1s-.61-.23-.62-.69c0-.63.4-.52.76-.52,5.36,0,10.71,0,16.07,0,.62,0,.87.14.84.82,0,1.25,0,2.52,0,3.78,0,.3.16.71-.43.74s-.53-.22-.61-.61c-.54-2.44-1.84-3.51-4.32-3.56-1.6,0-3.21,0-4.82,0-.9,0-1.32.3-1.3,1.26,0,2.29,0,4.59,0,6.88,0,1,.41,1.37,1.38,1.34s2.22-.06,3.33,0a1.37,1.37,0,0,0,1.65-1.31c.07-.49.2-.78.77-.71s.44.53.45.87q0,1.89,0,3.78c0,.33.09.7-.46.73s-.66-.17-.69-.64c-.07-1.12-.65-1.6-1.81-1.52s-2.3,0-3.44,0c-.81,0-1.19.3-1.18,1.15,0,2.94,0,5.88,0,8.82,0,.93.37,1.29,1.31,1.26,1.92,0,3.83,0,5.74,0A3,3,0,0,0,36,109.23c0-.3.13-.6.15-.9,0-.49.38-.38.67-.39s.44.19.44.51c0,1.33,0,2.67,0,4,0,.7-.52.52-.9.52Z"/><path class="cls-1" d="M122.62,113c-2.64,0-5.28,0-7.92,0-.32,0-.81.25-.9-.38s.38-.58.72-.67c.77-.2.72-.79.72-1.37V97.42c0-2,0-4,0-6.07,0-.56,0-1.14-.73-1.2-.5-.05-.78-.17-.71-.75s.62-.43,1-.43q6.83,0,13.65,0c.8,0,1.61,0,2.41,0,.5,0,.66.17.65.66,0,1.34,0,2.67,0,4,0,.3.05.62-.42.64s-.47-.18-.57-.52c-.78-2.8-1.92-3.64-4.85-3.64-1.45,0-2.9,0-4.36,0-.86,0-1.28.32-1.27,1.2q0,3.49,0,7c0,.92.41,1.3,1.34,1.26,1.14,0,2.3-.05,3.44,0,.93,0,1.48-.31,1.59-1.22.06-.52.23-.76.78-.7s.39.48.39.77q0,1.89,0,3.78c0,.3.17.73-.41.76s-.7-.14-.7-.64c0-1.2-.68-1.55-1.8-1.48s-2.37,0-3.56,0c-.72,0-1.06.32-1.06,1,0,3,0,6,0,9,0,.76.35,1.18,1.21,1.17,2.06,0,4.13,0,6.19,0,1.7,0,2.78-1.19,3.09-3.23.06-.44-.07-1,.68-.89s.43.62.44,1c0,1,0,2.06,0,3.09,0,.79-.18,1-1,1C128,113,125.29,113,122.62,113Z"/><path class="cls-1" d="M57.22,113c-2.7,0-2.7,0-3.61-2.5-.53-1.46-1.09-2.92-1.59-4.4a1.12,1.12,0,0,0-1.24-.9c-2,0-3.9,0-5.85,0-.71,0-1,.33-1.23.94-.79,2.06-1.62,4.1-2.44,6.15a2,2,0,0,1-2.21.68c-.11-.09-.14-.34-.16-.52s0-.44.36-.46c.89,0,1-.76,1.3-1.4q4-10.39,8-20.79c.2-.52.33-.89,1.06-.91s.93.4,1.14,1q3.86,10.26,7.76,20.5c.26.67.32,1.54,1.34,1.65.37,0,.29.39.28.65s-.3.36-.57.36Zm-9.48-8.87c.84,0,1.68,0,2.52,0s1.08-.28.75-1.09c-.91-2.25-1.78-4.52-2.67-6.78-.11-.26-.13-.66-.53-.63s-.34.35-.43.6c-.91,2.38-1.8,4.76-2.74,7.13-.27.68,0,.78.59.76C46.06,104.1,46.9,104.12,47.74,104.12Z"/><path class="cls-1" d="M201.81,113.15c-2.71,0-2.71,0-3.62-2.49-.53-1.47-1.08-2.93-1.59-4.41a1.14,1.14,0,0,0-1.25-.9q-2.86,0-5.73,0a1.24,1.24,0,0,0-1.36.92c-.75,2-1.57,4-2.36,5.94a1.73,1.73,0,0,1-2.19.91.43.43,0,0,1-.28-.45c0-.23,0-.51.31-.52,1,0,1.16-.86,1.42-1.55q3.92-10.2,7.8-20.39c.22-.58.29-1.2,1.24-1.2s1,.71,1.18,1.27c2.6,6.83,5.17,13.67,7.76,20.51.23.6.37,1.28,1.22,1.34.37,0,.3.37.3.63s-.28.39-.56.39Zm-9.52-8.84c.88,0,1.76,0,2.64,0,.72,0,1-.27.7-1-.92-2.3-1.81-4.61-2.72-6.91-.1-.23-.12-.58-.45-.61s-.45.37-.55.63c-.9,2.34-1.76,4.71-2.68,7-.25.62-.12.84.53.83C190.6,104.3,191.45,104.31,192.29,104.31Z"/><path class="cls-1" d="M168.53,101.06a12.82,12.82,0,0,0,2.62,8.56c2.22,2.71,5.81,3.24,8.34,1.23a3.85,3.85,0,0,0,1.52-2.47c.08-.52.32-.6.77-.6s.59.31.59.73c0,1.15,0,2.29,0,3.44,0,.47-.14.72-.62.76-3.34.31-6.69.78-10,0a9.56,9.56,0,0,1-7.72-8.46c-.66-4.38-.28-8.51,3-12a10.63,10.63,0,0,1,6.56-3.16,18.84,18.84,0,0,1,7.83.54c.75.21,1.16.54,1.07,1.43a24.69,24.69,0,0,0,0,3c0,.56-.31.62-.73.58s-.79.18-.94-.5c-.83-3.62-3.73-5-7.16-3.44-2.82,1.29-4.18,3.66-4.72,6.59A22.65,22.65,0,0,0,168.53,101.06Z"/><path class="cls-1" d="M8.85,113H.94c-.33,0-.81.23-.92-.37s.25-.62.65-.74a1.18,1.18,0,0,0,.84-1.32q0-9.61,0-19.23c0-.64-.23-1.08-.84-1.17s-.52-.43-.51-.81c0-.57.44-.42.75-.42h6c.29,0,.66-.09.64.4,0,.34.17.76-.47.83s-.92.63-.92,1.33c0,6.29,0,12.59,0,18.89,0,1.43.29,1.7,1.78,1.7H12.7a3.73,3.73,0,0,0,4-3.3,1.86,1.86,0,0,0,.06-.34c0-.42.24-.59.67-.57s.59.22.58.64c0,1.3-.08,2.6-.07,3.89,0,.77-.52.6-1,.6Z"/><path class="cls-1" d="M70.74,113c-2.64,0-5.28,0-7.92,0-.36,0-.89.28-1-.35s.24-.74.72-.88.77-.66.77-1.26V91.13c0-.65-.22-1.15-.91-1.25-.42-.06-.48-.27-.47-.62,0-.52.42-.34.68-.34,2,0,4,0,6,0,.26,0,.65-.19.73.29s-.05.61-.51.69c-.68.11-.9.62-.9,1.26q0,9.8,0,19.59c0,.91.48,1.31,1.36,1.31,1.91,0,3.82,0,5.73,0a3.71,3.71,0,0,0,3.51-3.34c.08-.45,0-.94.75-.86s.47.58.48,1c0,1.07-.05,2.14,0,3.2.06.85-.28,1-1,1C76,113,73.38,113,70.74,113Z"/><path class="cls-1" d="M158.75,113.15c-1,0-1.91,0-2.87,0-.3,0-.73.17-.79-.39s0-.74.54-.82c.76-.11.93-.64.93-1.33q0-9.61,0-19.22c0-.68-.12-1.23-.89-1.37-.35-.07-.41-.3-.38-.59s.32-.37.59-.37h6.19c.28,0,.53,0,.55.42a.46.46,0,0,1-.43.56c-.83.14-.95.71-.95,1.44,0,6.29,0,12.58-.05,18.88,0,.81,0,1.65,1.13,1.74.38,0,.29.38.3.64s-.26.42-.55.42Z"/></g></g></svg>