<svg xmlns="http://www.w3.org/2000/svg" viewBox="0 0 243.22 58.42"><defs><style>.cls-1{fill:#009590;}.cls-2{fill:#2f3567;}.cls-3{fill:#fff;}</style></defs><g id="Layer_2" data-name="Layer 2"><g id="Layer_1-2" data-name="Layer 1"><path class="cls-1" d="M21.72,33.75a70.86,70.86,0,0,1-4.56-6.68,13.7,13.7,0,0,1-1.82-5.51c-.09-1.34,0-2.66,1.56-3.6.57,4.16,3.57,6.36,6.41,8.73,5.06,4.22,7.35,9.89,8.1,16.26a29.65,29.65,0,0,1-1.17,13.42,6.31,6.31,0,0,1-1,2.05c-.45-1-.86-1.93-1.32-2.85a26.44,26.44,0,0,0-9.24-10.23A43.09,43.09,0,0,1,3.52,28.25,33.83,33.83,0,0,1,.86,5.67,14.13,14.13,0,0,1,1.37,4c.38-1,.66-1.1,1.37-.21A7.07,7.07,0,0,1,4.16,7.93,36.32,36.32,0,0,0,7.62,21.81a18.17,18.17,0,0,0,9.22,9.41c1.66.73,3.09,1.83,4.66,2.71l.3.17.13.13v-.15l-.16,0C22,34,21.8,33.86,21.72,33.75Z"/><path class="cls-1" d="M48.24,34a68.42,68.42,0,0,1,6-3.44c4.57-2.36,7.09-6.42,8.94-11A42.19,42.19,0,0,0,65.76,7.08a5.81,5.81,0,0,1,1.48-3.5c.48-.54.83-.59,1.12.21a23.6,23.6,0,0,1,1.35,7c.6,10.77-3.26,19.87-10.51,27.67a48.52,48.52,0,0,1-8.78,7.4,25.58,25.58,0,0,0-9.53,11.89c-.09.21-.1.47-.45.57a18.27,18.27,0,0,1-2-7A32.91,32.91,0,0,1,40.33,35.2,23.51,23.51,0,0,1,48.51,25a11.18,11.18,0,0,0,4.2-6c.08-.27,0-.73.4-.77s.61.31.8.6a4.92,4.92,0,0,1,.45,3.64,18.26,18.26,0,0,1-3.31,7.18c-1,1.41-2,2.79-3,4.19l-.11.27Z"/><path class="cls-2" d="M35.08,38.1c-1.48-3.41-2.93-6.69-4.35-10a34.6,34.6,0,0,0-4-6.85C22.09,15.08,20.62,8,20.9.48A4.55,4.55,0,0,1,21,0c.61,1.52,1.13,2.88,1.71,4.23a22.63,22.63,0,0,0,4.48,7.08,10.93,10.93,0,0,0,16.39-.74,28.33,28.33,0,0,0,5-9.33c.14-.41.1-.93.53-1.2a38.63,38.63,0,0,1-.58,9.78,22.12,22.12,0,0,1-3.49,8.63c-4.2,5.77-6.9,12.29-9.66,18.79C35.34,37.49,35.23,37.74,35.08,38.1Z"/><path class="cls-2" d="M30.69,6.79a4.51,4.51,0,0,1,9,0,4.51,4.51,0,1,1-9,0Z"/><path class="cls-1" d="M11,24.94a5.29,5.29,0,0,1-1.75-2.27A26.73,26.73,0,0,1,6.05,11.52a5.6,5.6,0,0,1,.84-3.58c.43-.66.77-.62,1.2,0a8.42,8.42,0,0,1,1.24,4.21c.24,2.8.39,5.61.71,8.39A45.09,45.09,0,0,0,11,25Z"/><path class="cls-1" d="M11,25l.16,0-.06.13L11,24.94Z"/><path class="cls-3" d="M21.78,34.12l.16,0v.15l-.13-.13Z"/><path class="cls-1" d="M168.53,22.08,166,28.28c-1,2.51-2.08,5-3.1,7.52-.17.4-.33.64-.85.64s-.68-.27-.83-.68L156.39,23a2.32,2.32,0,0,0-.51-.85V34.44c0,.61-.11,1.27.84,1.28.24,0,.18.24.2.4s-.12.3-.32.3q-1.22,0-2.43,0c-.22,0-.4,0-.4-.32s0-.4.31-.41c.6,0,.66-.42.66-.9q0-7.27,0-14.56c0-.54-.1-1-.73-1.08-.41-.06-.37-.36-.36-.65s.31-.28.52-.28c1.36,0,2.72,0,4.08,0,.52,0,.61.29.75.64q2,5.31,4,10.6c.14.37.29.74.44,1.12.35-.11.34-.4.43-.62,1.5-3.72,3-7.43,4.48-11.15a.91.91,0,0,1,1-.69c1.22,0,2.43,0,3.65,0,.23,0,.57-.11.57.31s.13.65-.36.73-.67.55-.67,1.05V34.16a1.41,1.41,0,0,0,.76,1.44.46.46,0,0,1,.27.56c0,.38-.33.25-.53.25-1.68,0-3.35,0-5,0-.21,0-.49.1-.51-.28s.05-.45.33-.52c.79-.18.9-.75.9-1.45,0-4,0-8,0-12Z"/><path class="cls-1" d="M192.88,18.21a28.58,28.58,0,0,1,5.7.32,7.37,7.37,0,0,1,6.21,6.74,11.47,11.47,0,0,1-.6,6.13c-1.36,3-3.91,4.37-7,4.84-2.67.4-5.37.1-8.06.17-.19,0-.42.06-.45-.25s0-.46.31-.54c.68-.19.74-.71.73-1.3,0-4.67,0-9.35,0-14,0-.58-.08-1-.75-1.15-.38-.06-.29-.36-.3-.61s.26-.31.48-.31Zm.41,9.19v7.44a.27.27,0,0,0,0,.09c0,.31-.16.72.42.77,3.59.29,6.13-1.57,6.93-4.58a15.65,15.65,0,0,0,.42-5.75c-.46-4.15-2.87-6.31-7-6.28-.59,0-.79.16-.79.78C193.3,22.38,193.29,24.89,193.29,27.4Z"/><path class="cls-2" d="M109.8,36.39c-2,0-4.06,0-6.08,0-.22,0-.55.18-.63-.24s.11-.51.46-.56.59-.38.59-.81q0-7.46,0-14.91c0-.44-.11-.77-.59-.76s-.46-.18-.47-.52.3-.4.57-.4c4.06,0,8.11,0,12.16,0,.47,0,.66.11.64.62,0,.95,0,1.9,0,2.86,0,.23.12.54-.32.56s-.41-.17-.47-.46a3,3,0,0,0-3.26-2.69c-1.22,0-2.43,0-3.65,0-.68,0-1,.23-1,.95,0,1.74,0,3.47,0,5.2,0,.76.31,1.05,1,1s1.68,0,2.52,0a1,1,0,0,0,1.25-1c0-.36.15-.58.58-.53s.34.4.34.66c0,.95,0,1.9,0,2.86,0,.25.07.52-.35.55s-.5-.13-.52-.49c0-.84-.49-1.21-1.37-1.14s-1.74,0-2.6,0c-.61,0-.9.22-.89.86,0,2.23,0,4.45,0,6.68,0,.7.27,1,1,1,1.45,0,2.89,0,4.34,0a2.29,2.29,0,0,0,2.52-2.08,4.23,4.23,0,0,0,.12-.68c0-.37.29-.29.51-.3s.33.15.33.39c0,1,0,2,0,3,0,.53-.39.4-.68.4Z"/><path class="cls-1" d="M181.15,36.42h-6c-.24,0-.61.19-.68-.29s.28-.44.54-.51c.58-.15.54-.6.54-1V20c0-.42,0-.85-.55-.9-.38,0-.59-.13-.54-.57s.48-.33.74-.33h10.32c.61,0,1.22,0,1.83,0,.38,0,.5.13.49.5,0,1,0,2,0,3,0,.23,0,.47-.32.49s-.35-.14-.43-.4c-.59-2.11-1.45-2.75-3.66-2.75-1.1,0-2.2,0-3.3,0-.66,0-1,.24-1,.91,0,1.76,0,3.52,0,5.29,0,.69.31,1,1,.95.87,0,1.74,0,2.6,0,.71,0,1.13-.24,1.21-.93,0-.39.17-.57.59-.53s.29.37.29.59c0,.95,0,1.91,0,2.86,0,.22.13.55-.31.57s-.53-.1-.53-.48c0-.91-.52-1.17-1.36-1.12s-1.8,0-2.69,0c-.55,0-.8.24-.8.77,0,2.28,0,4.57,0,6.85a.78.78,0,0,0,.91.88c1.57,0,3.13,0,4.69,0,1.28,0,2.1-.9,2.33-2.45,0-.33-.05-.73.52-.66s.33.46.34.73c0,.78,0,1.56,0,2.34,0,.6-.14.79-.76.78C185.2,36.39,183.18,36.42,181.15,36.42Z"/><path class="cls-2" d="M131.69,36.39c-2,0-2,0-2.73-1.88-.4-1.11-.83-2.22-1.2-3.34a.87.87,0,0,0-1-.68c-1.47,0-3,0-4.42,0-.54,0-.75.25-.93.71-.59,1.55-1.22,3.1-1.85,4.65a1.48,1.48,0,0,1-1.66.51c-.09-.07-.11-.25-.13-.39s0-.34.28-.35c.67,0,.79-.57,1-1q3-7.87,6-15.73c.15-.4.25-.68.8-.69s.71.3.87.72q2.91,7.77,5.87,15.51c.19.51.24,1.17,1,1.25.28,0,.22.29.21.49s-.23.27-.43.27Zm-7.17-6.71c.63,0,1.27,0,1.9,0s.82-.21.57-.82c-.69-1.7-1.35-3.42-2-5.13-.08-.2-.1-.5-.4-.48s-.26.27-.33.46c-.68,1.8-1.36,3.6-2.07,5.39-.2.51,0,.59.45.58C123.25,29.67,123.88,29.68,124.52,29.68Z"/><path class="cls-1" d="M241.06,36.52c-2.05,0-2.05,0-2.74-1.89-.41-1.11-.82-2.22-1.2-3.33a.88.88,0,0,0-1-.69c-1.44,0-2.89,0-4.33,0a1,1,0,0,0-1,.7c-.57,1.51-1.19,3-1.79,4.5a1.3,1.3,0,0,1-1.66.68.33.33,0,0,1-.21-.33c0-.18,0-.39.24-.4.77,0,.87-.65,1.08-1.18q2.94-7.71,5.89-15.41c.17-.45.22-.92.94-.91s.73.53.89.95q3,7.75,5.88,15.52c.17.45.27,1,.91,1,.29,0,.23.28.23.48s-.21.29-.42.29Zm-7.21-6.69h2c.55,0,.74-.2.53-.75-.69-1.74-1.37-3.49-2.06-5.23-.07-.18-.09-.43-.34-.46s-.33.28-.41.47c-.68,1.78-1.34,3.57-2,5.34-.19.47-.09.64.4.63Z"/><path class="cls-1" d="M215.89,27.37a9.74,9.74,0,0,0,2,6.48,4.46,4.46,0,0,0,6.31.92,2.94,2.94,0,0,0,1.16-1.87c.06-.38.24-.44.57-.45s.45.24.45.56c0,.86,0,1.73,0,2.6,0,.35-.12.54-.47.57-2.53.24-5.07.59-7.59,0a7.22,7.22,0,0,1-5.83-6.4c-.51-3.31-.22-6.44,2.23-9a8,8,0,0,1,5-2.39,14.11,14.11,0,0,1,5.92.41c.57.16.88.41.81,1.08a18.76,18.76,0,0,0,0,2.25c0,.43-.23.47-.55.44s-.6.13-.71-.38c-.63-2.73-2.82-3.79-5.42-2.6a6.28,6.28,0,0,0-3.56,5A15,15,0,0,0,215.89,27.37Z"/><path class="cls-2" d="M95.1,36.39c-2,0-4,0-6,0-.25,0-.62.18-.7-.28s.19-.46.49-.55a.89.89,0,0,0,.64-1q0-7.27,0-14.55c0-.48-.17-.82-.63-.88s-.39-.33-.39-.62.34-.31.57-.32h4.51c.22,0,.5-.07.48.3s.14.58-.35.63-.69.47-.69,1c0,4.77,0,9.53,0,14.29,0,1.09.22,1.29,1.34,1.29H98a2.83,2.83,0,0,0,3-2.5,1.84,1.84,0,0,0,0-.25c0-.32.17-.45.5-.44s.45.17.44.49c0,1-.06,2,0,2.94,0,.58-.4.46-.72.46Z"/><path class="cls-2" d="M141.91,36.39c-2,0-4,0-6,0-.27,0-.67.21-.79-.27s.18-.56.55-.66.58-.5.58-1q0-7.32,0-14.64c0-.49-.17-.87-.69-.95-.32,0-.37-.2-.36-.46s.32-.26.52-.26c1.5,0,3,0,4.51,0,.2,0,.5-.15.56.22s0,.46-.39.52c-.51.08-.68.47-.68.95V34.7c0,.69.36,1,1,1,1.45,0,2.9,0,4.34,0a2.8,2.8,0,0,0,2.65-2.52c.07-.34,0-.72.57-.66s.36.45.36.73c0,.81,0,1.62,0,2.42.05.64-.21.76-.79.75C145.9,36.37,143.91,36.39,141.91,36.39Z"/><path class="cls-1" d="M208.49,36.52c-.73,0-1.45,0-2.17,0-.23,0-.56.13-.6-.29s0-.56.4-.62c.58-.08.71-.48.71-1q0-7.28,0-14.55c0-.51-.09-.92-.68-1-.26-.05-.3-.23-.28-.45s.24-.28.44-.28H211c.22,0,.41,0,.42.31a.34.34,0,0,1-.32.42c-.63.11-.72.55-.72,1.09q0,7.14,0,14.28c0,.62,0,1.26.86,1.32.28,0,.22.29.22.48s-.19.32-.41.32Z"/></g></g></svg>