<?xml version="1.0" encoding="utf-8"?>
<!-- Generator: Adobe Illustrator 19.2.0, SVG Export Plug-In . SVG Version: 6.00 Build 0)  -->
<svg version="1.1" id="svg2" xmlns="http://www.w3.org/2000/svg" xmlns:xlink="http://www.w3.org/1999/xlink" x="0px" y="0px"
	 viewBox="0 0 1200 1200" style="enable-background:new 0 0 1200 1200;" xml:space="preserve">
<style type="text/css">
	.st0{fill:#FFFFFF;}
</style>
<title>usuario</title>
<path id="path25031" class="st0" d="M939.6,858.4c-157.3-57.3-207.6-105.7-207.6-209.3c0-62.2,51.5-102.5,69.1-155.7
	s27.7-116.3,36.2-162.3s11.8-63.6,16.4-112.5C859.3,157.5,818.4,0,600,0S340.7,157.5,346.4,218.6c4.6,48.9,8,66.7,16.4,112.5
	s18.5,109,36.1,162.3S468,586.9,468,649.1c0,103.6-50.3,152-207.6,209.3C102.5,915.8,0,972.5,0,1012.5V1200h1200v-187.5
	C1200,972.5,1097.4,915.9,939.6,858.4L939.6,858.4z"/>
</svg>
