<svg xmlns="http://www.w3.org/2000/svg" viewBox="0 0 48.92 75.95"><defs><style>.cls-1{fill:#fff;}.cls-2{fill:#612f75;}.cls-3{fill:#e93658;}.cls-4{fill:#60c9e5;}.cls-5{fill:#fde500;}</style></defs><g id="Layer_2" data-name="Layer 2"><g id="Layer_1-2" data-name="Layer 1"><path class="cls-1" d="M45.61,19.31a2,2,0,0,1,2,2V72.65a2,2,0,0,1-2,2H3.3a2,2,0,0,1-2-2V21.33a2,2,0,0,1,2-2H36"/><path class="cls-2" d="M45.61,76H3.3A3.3,3.3,0,0,1,0,72.65V21.33A3.31,3.31,0,0,1,3.3,18H36.05a1.29,1.29,0,0,1,0,2.58H3.3a.73.73,0,0,0-.73.73V72.65a.73.73,0,0,0,.73.73H45.61a.73.73,0,0,0,.73-.73V21.33a.72.72,0,0,0-.73-.73,1.29,1.29,0,0,1,0-2.58,3.31,3.31,0,0,1,3.31,3.31V72.65A3.31,3.31,0,0,1,45.61,76Z"/><polygon class="cls-3" points="9.01 9.01 9.01 25.75 39.91 25.75 39.91 1.29 16.73 1.29 9.01 9.01"/><path class="cls-2" d="M39.91,27H9a1.28,1.28,0,0,1-1.29-1.28V9A1.3,1.3,0,0,1,8.1,8.1L15.83.38A1.28,1.28,0,0,1,16.74,0H39.91a1.28,1.28,0,0,1,1.28,1.29V25.75A1.28,1.28,0,0,1,39.91,27ZM10.3,24.46H38.62V2.57H17.27l-7,7Z"/><path class="cls-2" d="M11.59,27H6.44a1.29,1.29,0,1,1,0-2.57h5.15a1.29,1.29,0,0,1,0,2.57Z"/><path class="cls-2" d="M42.48,27H37.33a1.29,1.29,0,0,1,0-2.57h5.15a1.29,1.29,0,1,1,0,2.57Z"/><rect class="cls-4" x="9.01" y="32.18" width="29.61" height="7.72"/><path class="cls-2" d="M38.62,41.19H9a1.28,1.28,0,0,1-1.29-1.28V32.18A1.28,1.28,0,0,1,9,30.9H38.62a1.28,1.28,0,0,1,1.29,1.28v7.73A1.28,1.28,0,0,1,38.62,41.19ZM10.3,38.62h27V33.47h-27v5.15Z"/><rect class="cls-5" x="7.72" y="46.34" width="7.72" height="5.15"/><path class="cls-5" d="M15.45,52.78H7.72a1.28,1.28,0,0,1-1.28-1.29V46.34a1.28,1.28,0,0,1,1.28-1.28h7.73a1.28,1.28,0,0,1,1.29,1.28v5.15A1.29,1.29,0,0,1,15.45,52.78ZM9,50.21h5.15V47.63H9Z"/><rect class="cls-5" x="32.18" y="46.34" width="7.72" height="5.15"/><path class="cls-5" d="M39.91,52.78H32.18a1.28,1.28,0,0,1-1.28-1.29V46.34a1.28,1.28,0,0,1,1.28-1.28h7.73a1.28,1.28,0,0,1,1.28,1.28v5.15A1.28,1.28,0,0,1,39.91,52.78Zm-6.44-2.57h5.15V47.63H33.47Z"/><rect class="cls-5" x="20.6" y="46.34" width="6.44" height="5.15"/><path class="cls-5" d="M27,52.78H20.6a1.29,1.29,0,0,1-1.29-1.29V46.34a1.28,1.28,0,0,1,1.29-1.28H27a1.28,1.28,0,0,1,1.29,1.28v5.15A1.29,1.29,0,0,1,27,52.78Zm-5.15-2.57h3.87V47.63H21.88Z"/><rect class="cls-5" x="7.72" y="56.64" width="7.72" height="5.15"/><path class="cls-5" d="M15.45,63.08H7.72a1.28,1.28,0,0,1-1.28-1.29V56.64a1.28,1.28,0,0,1,1.28-1.28h7.73a1.28,1.28,0,0,1,1.29,1.28v5.15A1.29,1.29,0,0,1,15.45,63.08ZM9,60.5h5.15V57.93H9Z"/><rect class="cls-5" x="20.6" y="56.64" width="19.31" height="5.15"/><path class="cls-5" d="M39.91,63.08H20.6a1.29,1.29,0,0,1-1.29-1.29V56.64a1.28,1.28,0,0,1,1.29-1.28H39.91a1.28,1.28,0,0,1,1.28,1.28v5.15A1.28,1.28,0,0,1,39.91,63.08Zm-18-2.58H38.62V57.93H21.88Z"/><path class="cls-2" d="M39.91,68.23H7.72a1.29,1.29,0,0,1,0-2.58H39.91a1.29,1.29,0,0,1,0,2.58Z"/></g></g></svg>