<svg xmlns="http://www.w3.org/2000/svg" viewBox="0 0 65.19 60.19"><defs><style>.cls-1{fill:#bf0000;}.cls-2{fill:#e20707;}.cls-3{fill:none;stroke:#fff;stroke-linecap:round;stroke-linejoin:round;stroke-width:2px;}</style></defs><g id="Layer_2" data-name="Layer 2"><g id="Layer_1-2" data-name="Layer 1"><path class="cls-1" d="M47.75.08a17.4,17.4,0,0,0-15.5,9.69A17.05,17.05,0,0,0,17.36,0C7.88-.11.1,8.19,0,18.56A19.77,19.77,0,0,0,3.94,30.73C8,37.42,32.3,60.19,32.3,60.19S56.73,38,61.72,30.84a20.4,20.4,0,0,0,3.46-11.27C65.29,8.92,57.48.2,47.75.08Z"/><path class="cls-2" d="M17.36,0C7.88-.11.1,8.19,0,18.56A19.77,19.77,0,0,0,3.94,30.73C8,37.42,32.3,60.19,32.3,60.19l0-50.42A17.05,17.05,0,0,0,17.36,0Z"/><polyline class="cls-3" points="7.41 25.87 17.15 25.87 19.18 20.46 22.57 35.69 25.95 10.98 27.98 26.21 30.75 15.95 32.38 26.21 40.29 26.21"/></g></g></svg>